<?xml version="1.0" encoding="UTF-8"?>
<svg id="Layer_1" xmlns="http://www.w3.org/2000/svg" version="1.1" viewBox="0 0 172.58 172.58">
  <!-- Generator: Adobe Illustrator 29.4.0, SVG Export Plug-In . SVG Version: 2.1.0 Build 152)  -->
  <defs>
    <style>
      .st0 {
        fill: none;
        stroke: #fff;
        stroke-linecap: round;
        stroke-width: 12px;
      }
    </style>
  </defs>
  <path class="st0" d="M14.72,80.91L82.6,13.03c9.37-9.37,24.57-9.37,33.94,0h0c9.37,9.37,9.37,24.57,0,33.94l-51.26,51.27"/>
  <path class="st0" d="M65.98,97.53l50.56-50.56c9.37-9.37,24.57-9.37,33.94,0l.35.35c9.37,9.37,9.37,24.57,0,33.94l-61.39,61.39c-3.12,3.12-3.12,8.19,0,11.31l12.61,12.61"/>
  <path class="st0" d="M99.57,30l-50.2,50.2c-9.37,9.37-9.37,24.57,0,33.94h0c9.37,9.37,24.57,9.37,33.94,0l50.2-50.2"/>
</svg>